HIERARCHY
ROOT joint_Root
{
	OFFSET 0.0 0.0 0.0
	CHANNELS 6 Xposition Yposition Zposition Zrotation Xrotation Yrotation 
	JOINT Hips
	{
		OFFSET -17.1583 93.1646 452.98
		CHANNELS 6 Xposition Yposition Zposition Zrotation Xrotation Yrotation 
		JOINT Spine
		{
			OFFSET 15.7357 0.0 0.0
			CHANNELS 6 Xposition Yposition Zposition Zrotation Xrotation Yrotation 
			JOINT Chest
			{
				OFFSET 8.98455 -0.406207 0.0
				CHANNELS 6 Xposition Yposition Zposition Zrotation Xrotation Yrotation 
				JOINT Neck
				{
					OFFSET 16.3773 0.0 0.0
					CHANNELS 6 Xposition Yposition Zposition Zrotation Xrotation Yrotation 
					JOINT Head
					{
						OFFSET 6.45672 0.0 0.0
						CHANNELS 6 Xposition Yposition Zposition Zrotation Xrotation Yrotation 
						End Site
						{
							OFFSET 0.0 0.0 0.0
						}
					}
				}
				JOINT Shoulder_L
				{
					OFFSET 12.9942 -0.242716 4.98039
					CHANNELS 6 Xposition Yposition Zposition Zrotation Xrotation Yrotation 
					JOINT UpperArm_L
					{
						OFFSET 5.34809 0.0 0.0
						CHANNELS 6 Xposition Yposition Zposition Zrotation Xrotation Yrotation 
						JOINT LowerArm_L
						{
							OFFSET 24.3286 1.87007e-05 0.0
							CHANNELS 6 Xposition Yposition Zposition Zrotation Xrotation Yrotation 
							JOINT Hand_L
							{
								OFFSET 22.2916 0.0 0.0
								CHANNELS 6 Xposition Yposition Zposition Zrotation Xrotation Yrotation 
								End Site
								{
									OFFSET 0.0 0.0 0.0
								}
							}
						}
					}
				}
				JOINT Shoulder_R
				{
					OFFSET 12.9945 -0.242716 -4.98039
					CHANNELS 6 Xposition Yposition Zposition Zrotation Xrotation Yrotation 
					JOINT UpperArm_R
					{
						OFFSET -5.34813 0.0 0.0
						CHANNELS 6 Xposition Yposition Zposition Zrotation Xrotation Yrotation 
						JOINT LowerArm_R
						{
							OFFSET -24.3289 0.000322201 0.0
							CHANNELS 6 Xposition Yposition Zposition Zrotation Xrotation Yrotation 
							JOINT Hand_R
							{
								OFFSET -22.2915 -0.000108084 0.0
								CHANNELS 6 Xposition Yposition Zposition Zrotation Xrotation Yrotation 
								End Site
								{
									OFFSET 0.0 0.0 0.0
								}
							}
						}
					}
				}
			}
		}
		JOINT UpperLeg_L
		{
			OFFSET -2.19248 -6.46944 0.0
			CHANNELS 6 Xposition Yposition Zposition Zrotation Xrotation Yrotation 
			JOINT LowerLeg_L
			{
				OFFSET 39.0811 0.0 -1.23785e-05
				CHANNELS 6 Xposition Yposition Zposition Zrotation Xrotation Yrotation 
				JOINT Foot_L
				{
					OFFSET 40.9854 0.0 -1.26872e-05
					CHANNELS 6 Xposition Yposition Zposition Zrotation Xrotation Yrotation 
					JOINT Toes_L
					{
						OFFSET 11.7543 0.0 0.0
						CHANNELS 6 Xposition Yposition Zposition Zrotation Xrotation Yrotation 
						End Site
						{
							OFFSET 0.0 0.0 0.0
						}
					}
				}
			}
		}
		JOINT UpperLeg_R
		{
			OFFSET -2.19251 6.46944 0.0
			CHANNELS 6 Xposition Yposition Zposition Zrotation Xrotation Yrotation 
			JOINT LowerLeg_R
			{
				OFFSET -39.0811 -0.00228153 -0.0401928
				CHANNELS 6 Xposition Yposition Zposition Zrotation Xrotation Yrotation 
				JOINT Foot_R
				{
					OFFSET -40.9854 0.0 0.0
					CHANNELS 6 Xposition Yposition Zposition Zrotation Xrotation Yrotation 
					JOINT Toes_R
					{
						OFFSET -11.7543 0.0 0.0
						CHANNELS 6 Xposition Yposition Zposition Zrotation Xrotation Yrotation 
						End Site
						{
							OFFSET 0.0 0.0 0.0
						}
					}
				}
			}
		}
	}
}
MOTION
Frames:	4
Frame Time:	0.0333333
0.000000 0.000000 0.000000 0.000000 0.000000 -0.000000 -0.000300 85.087500 -70.180000 83.984000 -4.877190 -14.060800 15.735700 0.000005 -0.000001 73.039600 84.982300 -69.392900 8.984550 -0.406207 -0.000000 1.945160 -3.110540 7.340900 16.377300 -0.000001 -0.000001 -6.985650 6.363980 -5.740950 6.456720 -0.000001 -0.000000 -1.855460 7.765060 -6.133830 12.994200 -0.242716 4.980390 -93.081400 10.168500 -73.043100 5.348090 -0.000007 -0.000001 -66.050700 6.237930 -0.232582 24.328600 0.000019 0.000005 22.623800 21.310600 -48.910500 22.291600 -0.000001 0.000005 -1.184050 4.779500 11.702300 12.994500 -0.242716 -4.980390 89.146700 2.870550 -73.435800 -5.348130 -0.000001 -0.000004 -54.140200 -8.781640 8.973760 -24.328900 0.000322 -0.000009 -0.001553 19.342900 0.000081 -22.291500 -0.000108 -0.000004 14.142100 4.632870 14.299900 -2.192480 -6.469440 -0.000000 -174.245000 -10.928700 -16.127100 39.081100 -0.000007 -0.000012 0.750212 0.001415 90.107300 40.985400 -0.000006 -0.000013 -9.901950 -5.983520 -32.349500 11.754300 -0.000000 0.000003 0.002270 0.059022 -14.182800 -2.192510 6.469440 -0.000001 -168.959000 -2.451320 136.850000 -39.081100 -0.002282 -0.040193 -0.033255 0.027484 53.013900 -40.985400 0.000008 0.000006 -1.342660 -5.372140 -78.839400 -11.754300 -0.000006 -0.000006 -0.005824 0.236892 -6.956330
0.000000 0.000000 0.000000 0.000000 0.000000 -0.000000 -0.475973 83.800500 -61.150000 82.111100 -4.821680 -13.164300 15.735700 0.000005 -0.000001 85.091500 84.262800 -80.943100 8.984550 -0.406207 -0.000000 3.721250 -1.126460 8.324550 16.377300 -0.000001 -0.000001 -8.233680 6.332230 -4.702200 6.456720 -0.000001 -0.000000 -1.783240 6.754830 -7.758610 12.994200 -0.242716 4.980390 -93.542800 10.862600 -71.813400 5.348090 -0.000007 -0.000001 -65.470400 5.380630 1.019600 24.328600 0.000019 0.000005 16.182300 27.129500 -32.476000 22.291600 -0.000001 0.000005 -0.399990 4.778220 11.727600 12.994500 -0.242716 -4.980390 89.138100 3.175730 -74.806700 -5.348130 -0.000001 -0.000004 -58.629500 -5.221500 2.596780 -24.328900 0.000322 -0.000009 2.163400 15.268100 -8.189310 -22.291500 -0.000108 -0.000004 4.016490 4.974030 7.798260 -2.192480 -6.469440 -0.000000 -172.244000 -9.766030 -28.463500 39.081100 -0.000007 -0.000012 0.535115 0.112735 101.895000 40.985400 -0.000006 -0.000013 -5.321610 -3.537040 -32.391500 11.754300 -0.000000 0.000003 0.002195 0.055057 -14.343600 -2.192510 6.469440 -0.000001 -167.089000 -1.091720 143.362000 -39.081100 -0.002282 -0.040193 -0.006926 0.006743 56.392700 -40.985400 0.000008 0.000006 -1.986040 -3.633220 -86.420500 -11.754300 -0.000006 -0.000006 -0.003539 0.214223 -7.879970
0.000000 0.000000 0.000000 0.000000 0.000000 -0.000000 -0.455169 84.457100 -51.827500 82.828500 -5.022030 -13.093200 15.735700 0.000005 -0.000001 93.596300 84.348600 -90.025100 8.984550 -0.406207 -0.000000 3.506750 0.575710 7.117000 16.377300 -0.000001 -0.000001 -8.325260 5.571780 -3.711510 6.456720 -0.000001 -0.000000 -1.023270 5.650380 -6.680110 12.994200 -0.242716 4.980390 -93.471600 10.469000 -71.537300 5.348090 -0.000007 -0.000001 -64.428600 0.249602 4.770720 24.328600 0.000019 0.000005 10.293100 34.426000 -17.814200 22.291600 -0.000001 0.000005 1.260110 4.792800 11.453600 12.994500 -0.242716 -4.980390 88.859200 4.275320 -75.044900 -5.348130 -0.000001 -0.000004 -59.057000 6.243000 -1.069560 -24.328900 0.000322 -0.000009 1.973700 4.466270 -23.986600 -22.291500 -0.000108 -0.000004 -0.022692 5.248610 1.495900 -2.192480 -6.469440 -0.000000 -173.268000 -7.669240 -39.646300 39.081100 -0.000007 -0.000012 0.340718 0.094207 105.454000 40.985400 -0.000006 -0.000013 -4.207400 -0.280801 -38.162300 11.754300 -0.000000 0.000003 0.002215 0.056052 -14.303200 -2.192510 6.469440 -0.000001 -168.924000 0.381566 152.537000 -39.081100 -0.002282 -0.040193 -0.007762 0.008528 52.218200 -40.985400 0.000008 0.000006 -3.311790 -0.972871 -89.197700 -11.754300 -0.000006 -0.000006 -0.000765 0.179675 -9.285040
0.000000 0.000000 0.000000 0.000000 0.000000 -0.000000 0.193447 86.818200 -42.099600 85.207500 -6.363520 -14.482200 15.735700 0.000005 -0.000001 102.389000 84.845500 -100.207000 8.984550 -0.406207 -0.000000 2.268050 2.105580 4.318990 16.377300 -0.000001 -0.000001 -8.416100 5.020290 -2.530770 6.456720 -0.000001 -0.000000 -0.878100 4.708740 -5.211390 12.994200 -0.242716 4.980390 -93.236700 9.585020 -71.241300 5.348090 -0.000007 -0.000001 -60.423100 -8.090620 8.897300 24.328600 0.000019 0.000005 3.332460 40.231600 -5.152520 22.291600 -0.000001 0.000005 -1.925070 4.685360 13.437000 12.994500 -0.242716 -4.980390 88.900100 4.225260 -75.394800 -5.348130 -0.000001 -0.000004 -58.345000 13.968700 -3.896320 -24.328900 0.000322 -0.000009 -1.073920 -1.162070 -42.676000 -22.291500 -0.000108 -0.000004 6.745430 5.438250 -4.165090 -2.192480 -6.469440 -0.000000 -176.696000 -6.564410 -48.296000 39.081100 -0.000007 -0.000012 0.272926 0.051411 100.665000 40.985400 -0.000006 -0.000013 -4.358510 -1.389300 -46.679600 11.754300 -0.000000 0.000003 0.002218 0.056240 -14.295600 -2.192510 6.469440 -0.000001 -173.699000 2.793810 161.860000 -39.081100 -0.002282 -0.040193 -0.024881 0.030459 42.745800 -40.985400 0.000008 0.000006 -5.134160 3.684290 -83.732300 -11.754300 -0.000006 -0.000006 0.002346 0.063798 -13.985600
